<svg xmlns="http://www.w3.org/2000/svg" viewBox="0 0 170.51 219.5"><defs><style>.cls-1{fill:#025a9e;}</style></defs><g id="Layer_2" data-name="Layer 2"><g id="ART"><path class="cls-1" d="M170.34,149.54l-.84-7-12-124.7A17.8,17.8,0,0,0,139.69,0h-109A17.81,17.81,0,0,0,12.9,17.8L.9,142.5l-.78,7.88a23.42,23.42,0,0,0,23.39,25.74l17-.05L15.3,208.16a5.08,5.08,0,0,0-.38.53,7,7,0,1,0,11.77,7.61l2-3.1,115.61-.38,2.25,3.48a5.82,5.82,0,0,0,.38.53,7,7,0,0,0,11-8.67l-25.48-32.37,14.68,0A23.44,23.44,0,0,0,170.34,149.54ZM151,44.1l4.11,42.18a8,8,0,0,1-8,8.77H88.31V44.1ZM71.16,19.59A11.65,11.65,0,1,1,84.62,33.05,11.62,11.62,0,0,1,71.16,19.59ZM16.35,86.28,20.46,44.1H83.12V95.05H24.32A8,8,0,0,1,16.35,86.28Zm23.84,56.49a11.66,11.66,0,1,1-13.46-13.46A11.66,11.66,0,0,1,40.19,142.77ZM34,205l8.13-12.57,88.93-.21,8,12.33Zm91.73-21-78.33.29L52.71,176l67.68-.21Zm5.42-45.21a11.65,11.65,0,1,1,13.46,13.46A11.62,11.62,0,0,1,131.11,138.82Z"/></g></g></svg>