<svg xmlns="http://www.w3.org/2000/svg" viewBox="0 0 201.42 208.23"><defs><style>.svg_white{fill:none;}.svg_blue{fill:#025a9e;}</style></defs><g id="Layer_2" data-name="Layer 2"><g id="ART"><path class="svg_white" d="M103.82,95.05h58.61c8.55,0,16-8.14,16-17.43V32.09H103.82Z"/><path class="svg_white" d="M24,77.62C24,86.91,31.47,95.05,40,95.05H98.63v-63H24Z"/><path class="svg_blue" d="M196.44,31.52H190c-2.73,0-4.93,1.73-5,3.88V17.8A17.8,17.8,0,0,0,167.21,0h-133a17.8,17.8,0,0,0-17.8,17.8V35.46c0-2.18-2.23-3.94-5-3.94H5c-2.75,0-5,1.76-5,3.94V67.39c0,2.17,2.23,3.94,5,3.94h6.45c2.75,0,5-1.77,5-3.94V197.72a10.51,10.51,0,0,0,10.5,10.51h7.18A10.52,10.52,0,0,0,44.6,197.72v-26.1H157.43v25.56a10.52,10.52,0,0,0,10.51,10.51h7.18a10.51,10.51,0,0,0,10.5-10.51L185,142.5v-75c0,2.14,2.24,3.88,5,3.88h6.45c2.75,0,5-1.77,5-3.94V35.46C201.42,33.28,199.19,31.52,196.44,31.52ZM44.21,152.44a11.65,11.65,0,1,1,11.65-11.65A11.65,11.65,0,0,1,44.21,152.44ZM98.63,95.05H40C31.47,95.05,24,86.91,24,77.62V32.09H98.63Zm3.61-72.49H66.82A6.87,6.87,0,0,1,60.5,13a6.87,6.87,0,0,1,6.32-4.16h69.93a6.87,6.87,0,1,1,0,13.74Zm55.87,129.88a11.65,11.65,0,1,1,11.65-11.65A11.64,11.64,0,0,1,158.11,152.44Zm20.37-74.82c0,9.29-7.5,17.43-16,17.43H103.82v-63h74.66Z"/></g></g></svg>