<svg xmlns="http://www.w3.org/2000/svg" viewBox="0 0 127.57 218.5"><defs><style>.cls-1{fill:#025a9e;}</style></defs><g id="Layer_2" data-name="Layer 2"><g id="ART"><path class="cls-1" d="M121.08,76.77,95.7,71.6l-13.2-19c-5-5.88-9.38-7.65-14.19-8.8-2.47-.59-9.48-.49-14.45.73-9.5,2.67-35.09,12.39-35.09,12.39a5.11,5.11,0,0,0-1.44,1.34L1.81,89.54A8.39,8.39,0,0,0,15,100L28,73.66a5.11,5.11,0,0,1,1.33-1.25l7.13-1.59L35,76.61,30.07,96.72a28.76,28.76,0,0,0,6,25.08l30,44.12v42.69A9.89,9.89,0,0,0,76,218.5h0a9.88,9.88,0,0,0,9.88-9.89V163.34a15.12,15.12,0,0,0-3.26-10.8l-19.4-30.89-.23,0L74,68.75,86.41,86.52l30.86,6.59a8.39,8.39,0,1,0,3.81-16.34Z"/><path class="cls-1" d="M11.28,203.29a10.45,10.45,0,0,0,8,12.61c5.62,1.21,10.44-1.94,12.46-8.16l15.42-61.23L29.68,122Z"/><path class="cls-1" d="M74.43,40.34A20.17,20.17,0,1,0,54.26,20.17,20.17,20.17,0,0,0,74.43,40.34Z"/></g></g></svg>